<svg width="80" height="76" viewBox="0 0 80 76" fill="none" xmlns="http://www.w3.org/2000/svg">
<rect width="80" height="76" rx="24" fill="#FFBF00"/>
<path fill-rule="evenodd" clip-rule="evenodd" d="M24.25 20.5C23.2835 20.5 22.5 21.2835 22.5 22.25V34.5C22.5 35.4665 23.2835 36.25 24.25 36.25H36.5C37.4665 36.25 38.25 35.4665 38.25 34.5V22.25C38.25 21.2835 37.4665 20.5 36.5 20.5H24.25ZM26 32.75V24H34.75V32.75H26Z" fill="#00286B"/>
<path fill-rule="evenodd" clip-rule="evenodd" d="M43.5 20.5C42.5335 20.5 41.75 21.2835 41.75 22.25V34.5C41.75 35.4665 42.5335 36.25 43.5 36.25H55.75C56.7165 36.25 57.5 35.4665 57.5 34.5V22.25C57.5 21.2835 56.7165 20.5 55.75 20.5H43.5ZM45.25 32.75V24H54V32.75H45.25Z" fill="#00286B"/>
<path fill-rule="evenodd" clip-rule="evenodd" d="M41.75 41.5C41.75 40.5335 42.5335 39.75 43.5 39.75H55.75C56.7165 39.75 57.5 40.5335 57.5 41.5V53.75C57.5 54.7165 56.7165 55.5 55.75 55.5H43.5C42.5335 55.5 41.75 54.7165 41.75 53.75V41.5ZM45.25 43.25V52H54V43.25H45.25Z" fill="#00286B"/>
<path fill-rule="evenodd" clip-rule="evenodd" d="M24.25 39.75C23.2835 39.75 22.5 40.5335 22.5 41.5V53.75C22.5 54.7165 23.2835 55.5 24.25 55.5H36.5C37.4665 55.5 38.25 54.7165 38.25 53.75V41.5C38.25 40.5335 37.4665 39.75 36.5 39.75H24.25ZM26 52V43.25H34.75V52H26Z" fill="#00286B"/>
</svg>
