<svg width="34" height="33" viewBox="0 0 34 33" fill="none" xmlns="http://www.w3.org/2000/svg">
<path fill-rule="evenodd" clip-rule="evenodd" d="M5.38907 15.3508C5.38907 10.0921 9.80265 5.77393 15.3162 5.77393C20.8298 5.77393 25.2434 10.0921 25.2434 15.3508C25.2434 17.9261 24.1849 20.2758 22.4572 22.0033C22.4069 22.0388 22.3592 22.0795 22.3149 22.1253C22.286 22.1551 22.2593 22.1863 22.2349 22.2186C20.4517 23.8926 18.0158 24.9278 15.3162 24.9278C9.80265 24.9278 5.38907 20.6096 5.38907 15.3508ZM23.014 24.1938C20.9322 25.9014 18.2423 26.9278 15.3162 26.9278C8.75999 26.9278 3.38907 21.7751 3.38907 15.3508C3.38907 8.92663 8.75999 3.77393 15.3162 3.77393C21.8724 3.77393 27.2434 8.92663 27.2434 15.3508C27.2434 18.195 26.1907 20.7899 24.4485 22.7988L29.6705 27.8535C30.0674 28.2376 30.0777 28.8707 29.6936 29.2675C29.3094 29.6643 28.6764 29.6746 28.2795 29.2905L23.014 24.1938Z" fill="white"/>
</svg>
